<svg xmlns="http://www.w3.org/2000/svg" xmlns:xlink="http://www.w3.org/1999/xlink" width="834" height="1194" viewBox="0 0 834 1194">
  <defs>
    <style>
      .cls-1 {
        clip-path: url(#clip-iPad_Pro_11in_2);
      }

      .cls-2, .cls-4, .cls-5, .cls-6 {
        fill: #202124;
      }

      .cls-2 {
        font-size: 160px;
        font-family: Arial-BoldMT, Arial;
      }

      .cls-2, .cls-6 {
        font-weight: 700;
      }

      .cls-3 {
        fill: #ebeded;
      }

      .cls-4, .cls-6 {
        font-size: 40px;
      }

      .cls-4, .cls-5 {
        font-family: AcuminPro-Regular, Acumin Pro;
      }

      .cls-4, .cls-5, .cls-6 {
        letter-spacing: -0.003em;
      }

      .cls-5 {
        font-size: 32px;
      }

      .cls-6 {
        font-family: AcuminPro-Bold, Acumin Pro;
      }

      .cls-12, .cls-7 {
        fill: none;
      }

      .cls-7 {
        stroke: #a6adb4;
        stroke-width: 4px;
      }

      .cls-8 {
        fill: #a6adb4;
      }

      .cls-9 {
        fill: #2e001f;
        stroke: #ff26be;
        stroke-width: 3px;
      }

      .cls-10 {
        fill: #ffd9f2;
      }

      .cls-11 {
        stroke: none;
      }

      .cls-13 {
        fill: #fff;
      }
    </style>
    <clipPath id="clip-iPad_Pro_11in_2">
      <rect width="834" height="1194"/>
    </clipPath>
  </defs>
  <g id="iPad_Pro_11in_2" data-name="iPad Pro 11in – 2" class="cls-1">
    <rect class="cls-13" width="834" height="1194"/>
    <text id="UI_Elements" data-name="UI Elements" class="cls-2" transform="translate(0 1117)"><tspan x="0" y="0">UI Elements</tspan></text>
    <rect id="Rectangle_442" data-name="Rectangle 442" class="cls-3" width="1840" height="1007" transform="translate(0 -394)"/>
    <text id="Built_for_Adobe_XD" data-name="Built for Adobe XD" class="cls-4" transform="translate(227 -12)"><tspan x="0" y="29">Built for Adobe XD</tspan></text>
    <text id="Use_the_assets_panel_to_reuse_symbols_change_colors_or_change_fonts._Changes_made_in_this_panel_will_be_reflected_in_the_artboards." data-name="Use the assets panel to reuse symbols, change colors, or change fonts. Changes made in this panel will be reflected in the artboards." class="cls-5" transform="translate(290 281)"><tspan x="0" y="24">Use the assets panel to reuse </tspan><tspan x="0" y="69">symbols, change colors, or </tspan><tspan x="0" y="114">change fonts. Changes made in </tspan><tspan x="0" y="159">this panel will be reflected in </tspan><tspan x="0" y="204">the artboards.</tspan></text>
    <text id="Assets_Panel:" data-name="Assets Panel:" class="cls-6" transform="translate(290 211)"><tspan x="0" y="29">Assets Panel:</tspan></text>
    <g id="Rectangle_443" data-name="Rectangle 443" class="cls-7" transform="translate(130 211)">
      <rect class="cls-11" width="80" height="80"/>
      <rect class="cls-12" x="2" y="2" width="76" height="76"/>
    </g>
    <rect id="Rectangle_445" data-name="Rectangle 445" class="cls-8" width="52" height="4" transform="translate(144 225)"/>
    <g id="Group_5" data-name="Group 5" transform="translate(-105 1609)">
      <g id="Rectangle_444" data-name="Rectangle 444" class="cls-9" transform="translate(238 -1639)">
        <rect class="cls-11" width="64" height="62" rx="12"/>
        <rect class="cls-12" x="-1.5" y="-1.5" width="67" height="65" rx="13.5"/>
      </g>
      <path id="Union_4" data-name="Union 4" class="cls-10" d="M24.155,20.053c0-6.781,4.512-12.078,11.671-12.078a13.028,13.028,0,0,1,1.513.058V.32a.292.292,0,0,1,.292-.292h4.6c.233,0,.292.087.292.233V26.98a20.814,20.814,0,0,0,.145,2.852c0,.175-.058.233-.232.32a17.347,17.347,0,0,1-7.451,1.688h-.072C28.632,31.841,24.155,27.94,24.155,20.053Zm5.268-.232c0,5.355,2.62,7.509,5.909,7.509a5.483,5.483,0,0,0,2.008-.32V12.6a4.4,4.4,0,0,0-1.687-.292C31.984,12.311,29.423,15.134,29.423,19.821ZM17.49,31.433a.571.571,0,0,1-.611-.379c-1.862-3.841-3.754-7.683-5.7-11.816h-.059c-1.746,3.9-3.667,8-5.53,11.846a.559.559,0,0,1-.524.319H.26c-.291,0-.32-.232-.175-.407L8.06,15.8.347.437A.235.235,0,0,1,.522.029H5.528a.458.458,0,0,1,.524.32c1.834,3.842,3.7,7.8,5.443,11.671h.058C13.241,8.178,15.1,4.191,16.908.378c.145-.232.232-.378.524-.378h4.685c.233,0,.32.175.175.408l-7.712,14.9,8.149,15.658c.146.233.058.466-.175.466Z" transform="translate(249 -1624)"/>
    </g>
  </g>
</svg>
